<svg xmlns="http://www.w3.org/2000/svg" viewBox="0 0 55.696 52.529"><defs><style>.fill-white{fill:#fff;stroke:#fff}.heart-shadow{filter:url(#heart_shadow)}</style><filter id="heart_shadow" x="0" y="0" width="55.696" height="52.529" filterUnits="userSpaceOnUse"><feOffset/><feGaussianBlur stdDeviation="5" result="blur"/><feFlood/><feComposite operator="in" in2="blur"/><feComposite in="SourceGraphic"/></filter></defs><g transform="translate(15.5 15.5)"><g class="heart-shadow" transform="translate(-15.5 -15.5)"><path class="fill-white" d="M17.424 968.378a6.33 6.33 0 0 0-4.533 1.91 6.587 6.587 0 0 0 0 9.205l10.017 10.225a.634.634 0 0 0 .9 0q5.014-5.105 10.027-10.215a6.584 6.584 0 0 0 0-9.205 6.346 6.346 0 0 0-9.077 0l-1.4 1.425-1.4-1.435a6.352 6.352 0 0 0-4.534-1.91zm0 1.247a5.082 5.082 0 0 1 3.633 1.554l1.861 1.891a.633.633 0 0 0 .9 0l1.851-1.881a5.039 5.039 0 0 1 7.265 0 5.307 5.307 0 0 1 0 7.434l-9.572 9.75-9.572-9.76a5.308 5.308 0 0 1 0-7.434 5.083 5.083 0 0 1 3.633-1.554z" transform="translate(4.48 -952.88)"/></g></g></svg>