<svg xmlns="http://www.w3.org/2000/svg" viewBox="0 0 28.284 28.284"><path d="M14.142 0a14.142 14.142 0 1 0 14.142 14.142A14.14 14.14 0 0 0 14.142 0zm6.634 11.529a9.2 9.2 0 0 1 .009.409 8.968 8.968 0 0 1-13.806 7.557 6.745 6.745 0 0 0 .753.043 6.327 6.327 0 0 0 3.917-1.35A3.154 3.154 0 0 1 8.7 16a3.156 3.156 0 0 0 .593.055 3.2 3.2 0 0 0 .83-.111A3.157 3.157 0 0 1 7.6 12.851v-.04a3.114 3.114 0 0 0 1.43.394 3.159 3.159 0 0 1-.975-4.212 8.953 8.953 0 0 0 6.5 3.3 3.245 3.245 0 0 1-.083-.719 3.156 3.156 0 0 1 5.457-2.158 6.26 6.26 0 0 0 2-.766 3.164 3.164 0 0 1-1.387 1.746 6.3 6.3 0 0 0 1.811-.5 6.372 6.372 0 0 1-1.576 1.633z" fill="#fff" class="fill-white"/></svg>