<svg xmlns="http://www.w3.org/2000/svg" viewBox="0 0 28.281 28.281"><defs><style>.fill-white{fill:#fff}</style></defs><g><path d="M80.747 114.5a1.905 1.905 0 1 0 1.747 1.9 1.819 1.819 0 0 0-1.747-1.9z" class="fill-white" transform="translate(-69.798 -101.163)"/><path d="M134.247 114.5a1.905 1.905 0 1 0 1.747 1.9 1.819 1.819 0 0 0-1.747-1.9z" class="fill-white" transform="translate(-117.067 -101.163)"/><path d="M14.14 0a14.14 14.14 0 1 0 14.14 14.14A14.148 14.148 0 0 0 14.14 0zm4.752 21.316s-.617-.734-1.13-1.386a5.346 5.346 0 0 0 3.087-2.038 9.925 9.925 0 0 1-1.968 1.008 11.238 11.238 0 0 1-2.481.734 12.223 12.223 0 0 1-4.426-.012 14.9 14.9 0 0 1-2.516-.734 9.06 9.06 0 0 1-1.246-.582c-.047-.035-.1-.047-.151-.082-.035-.012-.047-.035-.07-.047-.3-.175-.478-.291-.478-.291a5.309 5.309 0 0 0 2.993 2.015c-.513.652-1.141 1.421-1.141 1.421a6.177 6.177 0 0 1-5.207-2.6 22.906 22.906 0 0 1 2.458-9.951 8.495 8.495 0 0 1 4.811-1.805l.175.21a11.519 11.519 0 0 0-4.5 2.236s.373-.21 1.013-.5A12.641 12.641 0 0 1 12 7.839a2.481 2.481 0 0 1 .291-.035 14.112 14.112 0 0 1 3.448-.035 13.781 13.781 0 0 1 5.137 1.642 11.36 11.36 0 0 0-4.251-2.166l.245-.268a8.482 8.482 0 0 1 4.8 1.794 22.906 22.906 0 0 1 2.458 9.959 6.285 6.285 0 0 1-5.235 2.586z" class="fill-white"/></g></svg>