<svg xmlns="http://www.w3.org/2000/svg" viewBox="0 0 16 16"><path d="M14.2 12.4c-.5-.2-.6-.4-.6-.7 0-.3-.1-.6-.3-.8.2-.6.2-1.3 0-1.9-.6-1.2-1.3-2.2-2.1-3.2-.3-.5-.5-1.1-.4-1.7 0-.7-.1-1.4-.4-2C9.9 1.2 9.1.7 8.2.8c-.6 0-1.2.1-1.7.4-.9.6-.8 1.9-.7 2.8v.3c.1.5 0 1-.1 1.4 0 .3-.2.5-.4.7-.2.2-.4.5-.7.8-.2.5-.4.9-.6 1.4-.1.4-.2.7-.4 1-.2.3-.2.6-.1 1-.1.1-.3.2-.3.4-.1.3-.4.4-1 .5-.2 0-.4.1-.5.3-.1.2-.1.5 0 .7.1.3.1.6-.1.8 0 .1-.1.2-.1.3-.1.1 0 .3.1.4.2.3.9.4 1.5.5l1.2.3c.4.2.8.3 1.2.3h.2c.4 0 .7-.2.9-.5.6-.1 1.1-.2 1.7-.2.6 0 1.1 0 1.7.2.2.4.6.6 1.1.6.4 0 .7-.1 1-.4.6-.4 1.2-.8 1.8-1.1l.4-.2c.3-.1.5-.4.5-.7-.2-.1-.4-.3-.6-.4zm-7.6-.1c0-.3-.4-.6-.9-.9-.4-.2-.7-.5-.9-.8-.2-.6-.1-1.3.3-1.9.2-.3.3-.6.4-.9.1-.3.2-.7.4-.9.3-.4.5-.9.5-1.3.3.3.6.4 1 .5h.2c.2-.1.6-.3.8-.5.2-.1.5-.3.8-.4.7 1.2 1.3 2.5 1.7 3.9.1.5.1 1-.1 1.5h-.2c-.4 0-.5.2-.5.3-.1.5-.1.9-.1 1.4-.5.5-1.1.9-1.8 1-.4.1-.7.1-1.1.1h-.5l-.5-.5c.4-.1.5-.3.5-.6zm.6-8.5c-.1 0-.1 0 0 0-.1-.3-.3-.5-.6-.6h-.1c-.1 0-.3.1-.3.2.1-.2.3-.4.5-.4.3 0 .5.3.5.7v.1zm1.9.2v-.2c0-.3-.2-.5-.4-.6s-.6.2-.6.5V3.7c-.2-.5.1-.8.4-.8.3-.1.7.1.7.5v.2c0 .1 0 .3-.1.4zm-.3.8l-.1.1s-.1 0-.2.1h-.1c-.3.2-.6.3-1 .5-.1 0-.2 0-.3-.1v-.1c-.2-.1-.4-.2-.5-.4.1 0 .3-.2.4-.3.1-.2.3-.3.5-.3.3.1.5.1.8.2.1 0 .2.1.3.1 0 .1.2.1.2.2zm1.9 8.8c.1-.5.2-1 .2-1.5v-.3-.5c0 .3.1.7.4.8.1 0 .3.1.4.1.4 0 .7-.1 1-.3.1-.1.2-.2.2-.3v.1c0 .4.2.7.5.9.1.1.4.2.4.3l-.6.3c-.4.2-.8.4-1.2.7-.2.3-.6.5-.9.5H11c-.2 0-.4-.3-.3-.8zm-8.4-1.2v-.3c0-.1.3-.1.5-.2.2 0 .4-.1.5-.2.2-.1.3-.3.4-.5 0-.1.1-.2.2-.3.1 0 .4.3.6.5 0 .1.1.2.2.3.3.4.6.9.9 1.2.2.5.4.8.4 1.1-.1.2-.2.4-.4.5h-.1c-.5-.1-1.1-.2-1.6-.5h-.1c-.3-.1-.6-.2-1-.2-.3 0-.5-.1-.7-.2-.1-.1 0-.2.1-.4 0-.1.1-.2.1-.4v-.4z" fill="#888eb6"/></svg>