<svg xmlns="http://www.w3.org/2000/svg" viewBox="0 0 16 16"><style>.fill-blue-gray{fill:#888eb6}</style><path class="fill-blue-gray" d="M11.7 5.6H4.3c-.2 0-.3.1-.3.2V12c0 .2.1.3.3.3h1.3v2.1c0 .4.4.9.9.9s.9-.4.9-.9v-2.1h1.2v2.1c0 .4.4.9.9.9s.9-.4.9-.9v-2.1h1.4c.2 0 .3-.1.3-.3V5.8c-.1-.1-.3-.2-.4-.2z"/><path class="fill-blue-gray" d="M2.8 5.6c-.4 0-.9.4-.9.9V10c0 .4.4.9.9.9s.9-.4.9-.9V6.4c0-.5-.4-.8-.9-.8z"/><path class="fill-blue-gray" d="M13.2 5.6c-.4 0-.9.4-.9.9V10c0 .4.4.9.9.9s.9-.4.9-.9V6.4c-.1-.5-.4-.8-.9-.8z"/><path class="fill-blue-gray" d="M4.4 5.1h7.2c.2 0 .3-.1.3-.3-.3-1.1-.9-2.1-1.9-2.6l.6-1.1c0-.1 0-.2-.1-.2s-.2 0-.2.1l-.7 1c-1.1-.5-2.2-.5-3.3 0L5.8.9C5.7.8 5.6.8 5.5.8s-.1.1-.1.2L6 2.1c-1 .6-1.7 1.6-1.9 2.7-.1.1.1.3.3.3zm5.8-1.6c0 .2-.2.4-.4.4-.2-.1-.4-.2-.4-.4s.2-.4.4-.4.4.2.4.4zm-4-.4c.2 0 .4.2.4.4s-.2.4-.4.4c-.2-.1-.4-.2-.4-.4s.2-.4.4-.4z"/></svg>