<svg xmlns="http://www.w3.org/2000/svg" viewBox="0 0 27.193 27.193"><defs><style>.fill-white{fill:#fff}</style></defs><path d="M25.321 18a7.321 7.321 0 1 0 7.321 7.321A7.33 7.33 0 0 0 25.321 18z" class="fill-white" transform="translate(-11.725 -11.725)"/><path d="M43.774 18.015a1.043 1.043 0 0 0 .739-.306l1.479-1.479a1.046 1.046 0 1 0-1.479-1.479l-1.479 1.479a1.046 1.046 0 0 0 .739 1.785z" class="fill-white" transform="translate(-23.521 -10.028)"/><path d="M16.228 43.034l-1.478 1.479a1.046 1.046 0 0 0 1.479 1.479l1.479-1.479a1.046 1.046 0 1 0-1.479-1.479z" class="fill-white" transform="translate(-10.028 -23.521)"/><path d="M44.513 43.034a1.046 1.046 0 0 0-1.479 1.479l1.479 1.479a1.046 1.046 0 1 0 1.479-1.479z" class="fill-white" transform="translate(-23.521 -23.521)"/><path d="M16.229 17.708a1.046 1.046 0 1 0 1.479-1.479l-1.479-1.479a1.046 1.046 0 1 0-1.479 1.479z" class="fill-white" transform="translate(-10.028 -10.028)"/><path d="M31.046 11.23a1.046 1.046 0 0 0 1.046-1.046V7.046a1.046 1.046 0 1 0-2.092 0v3.138a1.046 1.046 0 0 0 1.046 1.046z" class="fill-white" transform="translate(-17.449 -6)"/><path d="M31.046 48A1.046 1.046 0 0 0 30 49.045v3.138a1.046 1.046 0 0 0 2.092 0v-3.138A1.046 1.046 0 0 0 31.046 48z" class="fill-white" transform="translate(-17.449 -26.036)"/><path d="M11.23 31.046A1.046 1.046 0 0 0 10.184 30H7.046a1.046 1.046 0 0 0 0 2.092h3.138a1.046 1.046 0 0 0 1.046-1.046z" class="fill-white" transform="translate(-6 -17.449)"/><path d="M52.184 30h-3.138a1.046 1.046 0 1 0 0 2.092h3.138a1.046 1.046 0 1 0 0-2.092z" class="fill-white" transform="translate(-26.036 -17.449)"/></svg>