<svg xmlns="http://www.w3.org/2000/svg" viewBox="0 0 28.281 28.281"><defs><style>.fill-white{fill:#fff}</style></defs><path d="M226 214.539l5.129-2.919L226 208.7z" class="fill-white" transform="translate(-213.849 -197.479)"/><path d="M14.14 0a14.14 14.14 0 1 0 14.14 14.14A14.137 14.137 0 0 0 14.14 0zm9.42 18.893a2.468 2.468 0 0 1-1.737 1.747c-1.532.414-7.667.414-7.667.414s-6.135 0-7.667-.414a2.468 2.468 0 0 1-1.737-1.747 25.93 25.93 0 0 1-.409-4.753 25.93 25.93 0 0 1 .409-4.753A2.468 2.468 0 0 1 6.49 7.64c1.532-.414 7.667-.414 7.667-.414s6.135 0 7.667.414a2.468 2.468 0 0 1 1.736 1.748 25.93 25.93 0 0 1 .409 4.753 25.93 25.93 0 0 1-.409 4.752z" class="fill-white"/></svg>