<svg xmlns="http://www.w3.org/2000/svg" viewBox="0 0 16 16"><path d="M4.1 2.4c.7-.3 1.5-.5 2.2-.5.3 0 .7 0 1 .1.5.2 1 .4 1.4.7L7.5 6.9c-.7-.5-1.5-.8-2.3-.8-.8 0-1.5.2-2.2.5l1.1-4.2zM6 12.6c.3-1 1-3.6 1.2-4.3-.2-.1-.3-.2-.5-.3-.5-.3-1.1-.5-1.8-.5h-.2c-.6.1-1.2.2-1.8.4-.1.1-.2.1-.4.2l-1.2 4.2c.7-.3 1.4-.4 2.2-.5.9 0 1.8.3 2.5.8zm7-3.1c-.7.2-1.4.4-2.2.4-1 0-1.9-.3-2.7-.8L7 13.3c.7.5 1.6.8 2.4.9.9 0 1.7-.2 2.5-.6L13 9.5zm1.6-5.7c-.7.3-1.5.5-2.2.5-.9 0-1.9-.3-2.6-.8L8.6 7.7c.8.5 1.6.8 2.6.8.8 0 1.6-.2 2.3-.5l1.1-4.2z" fill="#888eb6"/></svg>