<svg xmlns="http://www.w3.org/2000/svg" viewBox="0 0 55.696 52.529"><defs><style>.fill-white{fill:#fff;stroke:#fff}.heart-shadow{filter:url(#heart_shadow)}</style><filter id="heart_shadow" x="0" y="0" width="55.696" height="52.529" filterUnits="userSpaceOnUse"><feOffset/><feGaussianBlur stdDeviation="5" result="blur"/><feFlood/><feComposite operator="in" in2="blur"/><feComposite in="SourceGraphic"/></filter></defs><g transform="translate(40.984 -47.016)"><g class="heart-shadow" transform="translate(-40.98 47.018)"><path class="fill-white" d="M21.9,15.5c-1.7,0-3.3,0.7-4.5,1.9c-2.5,2.6-2.5,6.6,0,9.2l10,10.2c0.2,0.2,0.6,0.3,0.9,0c0,0,0,0,0,0			c3.3-3.4,6.7-6.8,10-10.2c2.5-2.6,2.5-6.6,0-9.2c-2.4-2.5-6.5-2.6-9-0.1c0,0-0.1,0.1-0.1,0.1l-1.4,1.4l-1.4-1.4			C25.3,16.2,23.6,15.5,21.9,15.5L21.9,15.5z"/></g></g></svg>