<svg xmlns="http://www.w3.org/2000/svg" viewBox="0 0 23.005 23.652"><path d="M22.955 16.662a.674.674 0 0 0-.131-.219.827.827 0 0 0-.117-.109.629.629 0 0 0-.117-.073.422.422 0 0 0-.1-.036.194.194 0 0 0-.087-.022.68.68 0 0 0-.379.036A10.729 10.729 0 0 1 8.828 1.077a.75.75 0 0 0 .075-.481.147.147 0 0 0-.022-.08.572.572 0 0 0-.066-.153.445.445 0 0 0-.087-.117.252.252 0 0 0-.08-.073.207.207 0 0 0-.08-.058.073.073 0 0 0-.036-.029.743.743 0 0 0-.481-.073.166.166 0 0 0-.08.022.066.066 0 0 0-.036.007 12.189 12.189 0 1 0 14.943 17.29.713.713 0 0 0 .109-.255.554.554 0 0 0 .022-.153.8.8 0 0 0-.015-.131.442.442 0 0 0-.039-.131z" data-name="Path 1654" fill="#fff" class="fill-white"/></svg>