<svg xmlns="http://www.w3.org/2000/svg" viewBox="0 0 28.281 28.281"><defs><style>.fill-white{fill:#fff}</style></defs><g><path d="M313.7 310h-.082a2.845 2.845 0 0 0-1.986.817 3.092 3.092 0 0 0-.932 2.2 3.022 3.022 0 1 0 6.043-.018A2.793 2.793 0 0 0 313.7 310z" class="fill-white" transform="translate(-299.581 -298.906)"/><path d="M207.638 190.7h-6.893a3.648 3.648 0 0 0-3.645 3.645v7.355a3.648 3.648 0 0 0 3.645 3.645h6.893a3.648 3.648 0 0 0 3.645-3.645v-7.355a3.648 3.648 0 0 0-3.645-3.645zm1.115 7.316a4.656 4.656 0 0 1-1.351 3.2 4.487 4.487 0 0 1-3.208 1.337 4.566 4.566 0 0 1-4.56-4.553 4.635 4.635 0 0 1 1.4-3.308 4.349 4.349 0 0 1 3.183-1.251 4.717 4.717 0 0 1 3.405 1.384 4.433 4.433 0 0 1 1.131 3.191zm.108-3.642a1.065 1.065 0 1 1 1.065-1.065 1.065 1.065 0 0 1-1.066 1.065z" class="fill-white" transform="translate(-190.053 -183.882)"/><path d="M14.64.5a14.14 14.14 0 1 0 14.14 14.14A14.139 14.139 0 0 0 14.64.5zm8.348 17.818a4.908 4.908 0 0 1-4.9 4.9h-6.896a4.908 4.908 0 0 1-4.9-4.9v-7.355a4.908 4.908 0 0 1 4.9-4.9h6.893a4.908 4.908 0 0 1 4.9 4.9v7.355z" class="fill-white" transform="translate(-.5 -.5)"/></g></svg>