<svg xmlns="http://www.w3.org/2000/svg" viewBox="0 0 38.703 36.333"><path d="M16.622 0a17.249 17.249 0 0 0-2.3.3l.6 2.308a15.12 15.12 0 0 1 1.691-.234zm2.32 0v2.37a15.34 15.34 0 0 1 1.7.234l.6-2.308a17.434 17.434 0 0 0-2.308-.3zm-6.861.9a17.587 17.587 0 0 0-2.147.9l1.172 2.073a14.918 14.918 0 0 1 1.579-.666zm11.4 0l-.6 2.308a15.778 15.778 0 0 1 10.4 14.945 16.277 16.277 0 0 1-.432 3.69l-3.455-3.073a1.146 1.146 0 0 0-.864-.284 1.172 1.172 0 0 0-1.037.95l-2.332 11.872a1.2 1.2 0 0 0 .38 1.119 1.143 1.143 0 0 0 1.137.227l11.229-3.949a1.179 1.179 0 0 0 .773-.895 1.2 1.2 0 0 0-.378-1.129l-3.5-3.11a18.62 18.62 0 0 0 .8-5.418A18.212 18.212 0 0 0 23.484.9zM7.933 3.01a18.138 18.138 0 0 0-1.862 1.428l1.641 1.666a15.508 15.508 0 0 1 1.382-1.049zM4.441 6.12A18.458 18.458 0 0 0 3.01 7.996l2.011 1.172a15.707 15.707 0 0 1 1.049-1.37zm12.5 1.74v9.578l-8.3 4.788 1.185 2.061 8.539-4.924a1.188 1.188 0 0 0 .95-1.16c0-.026-.011-.048-.012-.074h.012V7.861h-2.373zm-15.1 2.184a18.176 18.176 0 0 0-.888 2.184l2.221.617a15.9 15.9 0 0 1 .679-1.617zm-1.52 4.494a18.525 18.525 0 0 0-.308 2.357h2.332a16.1 16.1 0 0 1 .222-1.74l-2.246-.617zM0 19.277a18.493 18.493 0 0 0 .3 2.361l2.246-.617a16.325 16.325 0 0 1-.21-1.74zm29.381 2.616l5.886 5.233-7.428 2.629 1.542-7.861zm-26.259 1.42l-2.233.629a18.137 18.137 0 0 0 .876 2.209l2.011-1.185a16.19 16.19 0 0 1-.654-1.653zm1.814 3.715l-2.011 1.185a18.43 18.43 0 0 0 1.431 1.913L6 28.447a15.963 15.963 0 0 1-1.061-1.419zm2.7 3.11l-1.629 1.666a17.957 17.957 0 0 0 1.851 1.469l1.16-2.049a15.637 15.637 0 0 1-1.38-1.086zm3.393 2.271l-1.16 2.073a17.419 17.419 0 0 0 2.172.926l.592-2.32a14.94 14.94 0 0 1-1.601-.679zm3.862 1.3l-.6 2.308a17.288 17.288 0 0 0 2.332.321v-2.382a15.155 15.155 0 0 1-1.728-.247z" class="fill-white" fill="#fff"/></svg>