<svg xmlns="http://www.w3.org/2000/svg" viewBox="0 0 24 24"><path d="M21.8 10.7c-.1-.5-.5-.8-.9-.9l-.3-.1c-.8-.2-1.4-.7-1.8-1.4-.4-.7-.5-1.5-.3-2.3l.1-.3c.1-.5 0-.9-.4-1.2-.4-.3-.7-.5-1.1-.7l-1.2-.6c-.5-.1-.9 0-1.3.3l-.2.2c-1.2 1.1-3.1 1.1-4.4 0l-.4-.3c-.4-.3-.8-.4-1.3-.3l-1.2.6c-.4.2-.8.5-1.2.8-.3.3-.4.7-.3 1.2l.1.3c.2.8.1 1.6-.3 2.3-.5.6-1.2 1.2-1.9 1.4h-.3c-.5.1-.8.5-.9.9-.1.9-.1 1.8 0 2.6.1.5.5.8.9.9l.3.1c.8.2 1.4.7 1.9 1.4.4.7.5 1.5.3 2.3l-.1.3c-.1.5 0 .9.4 1.2.4.3.7.5 1.1.7l1.2.6c.5.1.9 0 1.3-.3l.2-.2c1.2-1.1 3.1-1.1 4.4 0l.2.2c.3.3.8.4 1.3.3l1.2-.6c.4-.2.8-.5 1.1-.7.3-.3.5-.8.4-1.2l-.1-.2c-.2-.8-.1-1.6.3-2.3.4-.7 1.1-1.2 1.9-1.4l.3-.1c.5-.1.8-.5.9-.9.1-.4.1-.9.1-1.3v-1.3zM12 15.8c-2.1 0-3.8-1.7-3.8-3.8S9.9 8.2 12 8.2s3.8 1.7 3.8 3.8-1.7 3.8-3.8 3.8z" fill="#fff" class="fill-white"/></svg>