<svg xmlns="http://www.w3.org/2000/svg" viewBox="0 0 144.3 144.4"><style>.wht{fill:#fff}</style><path class="wht" d="M112.9 113c0-.1-.1-.1 0 0zm9.5 3.1s-.1 0 0 0zm-6.5-80.9c1.3-3.5 1.9-8.2.7-12.7-1.1-4-3.6-8.1-8.3-11.7-1.2-.9-4.2-3.1-7.6-4.8C91.3 1.6 81-.3 69.8.1 52.1.7 34.9 7.9 22.3 20 9 32.8.7 51 0 69.7c-.3 7.2.9 15.4 2.6 22 2.1 6.3 9.8 6.4 12.4.2 0-.1 9.9-25.7 15.5-40.1 0 0 2.2-5.4 4.5-7.8.7-.9 1.6-1.6 2.5-2.4 3.6-2.9 8-4.6 12.5-4.8 4.5-.3 9.1.9 13 3.5 1.9 1.3 3.7 2.9 5 4.6.1.2 2.3 3.4 2.3 3.4 4.3 6.9 8.7 13.9 13.1 20.8L90 79.6v.1c1.9 3.5 7.5 3.4 9.3-.9 3.8-10.1 15.9-41.9 16.6-43.6zm6.2 77.8s0-.1 0 0z"/><path class="wht" d="M139.8 47.3c-2.2-6-10.8-5.7-12.6.4l-.9 3c-3.6 11.8-7.8 25.6-12.2 40.4-.3.9-1.7 5.7-2.5 7-1.8 3.5-4.9 6.5-8.5 8.2-3.6 1.8-7.7 2.3-11.8 1.6-2-.3-4-1.1-5.9-2.1C81.7 103.6 76 96 76 96c-1.2-1.6-2.4-3.3-3.6-5-2.4-3.3-4.8-6.6-7.3-10l-6.6-9c-2.4-3.3-7.5-2.4-8.7 1.5-3 9.6-5.8 18.6-8.4 26.7-2 6.5-3.9 12.4-5.5 17.6-.7 2.8-1.2 6.7-.4 10.2 1.1 3.9 3.6 8.6 9.8 11.5 5.1 2.2 18 5.2 29.5 4.9 37.5-1.4 67.9-31.7 69.4-69.1.4-9.9-1.2-19.4-4.4-28z"/></svg>