<svg xmlns="http://www.w3.org/2000/svg" viewBox="0 0 527 154.6"><style>.wht{fill:#fff}</style><path class="wht" d="M235.5 16.3l-28.2 7.3-2.1 16.7h-14.1L188.7 63h13.8l-4.3 34.8c-2.6 20.1 5.3 30.2 29.2 30.2 3.8 0 10.2-.7 14.2-1.7l2.6-21.3c-1.4.3-4.8 1-8.4 1-8.7 0-10.9-3.8-10.1-10.4l4.1-32.6H251l2.7-22.7h-21.2l3-24zM441 42.7h-34.1L381.6 70l8.7-70h-26.5l-15.7 128h26.5l3.2-26.5 6.2-5.8 15.9 32.3h33.2l-29.5-50.5L441 42.7zM60.4 40.4c-.7 0-1.4 0-2.1.1H10.8L10 47v.3L.1 128.1h27.3l6.8-57 .5-4.1.6-4.4h15.3c7.3 0 9 4.3 8.2 10.6l-6.7 55h27.3l7.2-59.1c2.1-16.4-3-28.7-26.2-28.7zm95.2-.1l-7.5 61.1h-.1l-.6 4.4h-15.1c-7.3 0-9-4.3-8.4-10.6l6.8-55h-27.3l-7.3 59.1c-1.7 14.8 2.3 26.2 20.2 28.3 1.3.2 3.5.4 3.5.4h52.4l1-8.4h-.1l9.7-79.3h-27.2zm371.4 0h-27.3l-7.5 61.1-.6 4.4h-15.1c-7.3 0-9-4.3-8.4-10.6l6.8-55h-27.3l-7.3 59.1c-1.7 14.7 2.3 26.1 19.8 28.3 1.3.2 4.1.4 4.1.4h52l1.2-9.9 9.6-77.8zm-183.8 0h-26.9l-.4 2.6c-4.9-3-11.4-5-21-5-22.2 0-34.8 13.7-38.7 45.1-3.8 31.4 5.5 45.1 27.6 45.1h48.7l.3-2.3v-.1l10.4-85.4zm-33.3 48.1l-1.7 13.9h-.1l-.5 3.5h-11.9c-12.6 0-14.3-8.2-12.6-22.9C285 68.4 288.7 60 301.4 60c6.8 0 11.6 3.6 11.6 3.6l-3.1 24.8z"/></svg>